HIERARCHY
ROOT Hips
{
	OFFSET 0.000000 0.000000 0.000000
	CHANNELS 6 Xposition Yposition Zposition Xrotation Yrotation Zrotation
	JOINT LeftUpLeg_virtual
	{
		OFFSET 0.000000 0.000000 0.000000
		CHANNELS 3 Xrotation Yrotation Zrotation
		JOINT LeftUpLeg
		{
			OFFSET 15.427100 -6.655098 0.678600
			CHANNELS 3 Xrotation Yrotation Zrotation
			JOINT LeftLeg
			{
				OFFSET 4.081073 -39.591068 13.024000
				CHANNELS 3 Xrotation Yrotation Zrotation
				JOINT LeftFoot
				{
					OFFSET -4.081074 -37.707932 -15.979700
					CHANNELS 3 Xrotation Yrotation Zrotation
					JOINT LeftToeBase
					{
						OFFSET 5.346399 -15.068900 20.645000
						CHANNELS 3 Xrotation Yrotation Zrotation
						JOINT LeftToe_End
						{
							OFFSET 2.754700 0.931300 11.300900
							CHANNELS 3 Xrotation Yrotation Zrotation
							End Site
							{
								OFFSET 0 0 0
							}
						}
					}
				}
			}
		}
	}
	JOINT RightUpLeg_virtual
	{
		OFFSET 0.000000 0.000000 0.000000
		CHANNELS 3 Xrotation Yrotation Zrotation
		JOINT RightUpLeg
		{
			OFFSET -15.569500 -6.655098 0.678600
			CHANNELS 3 Xrotation Yrotation Zrotation
			JOINT RightLeg
			{
				OFFSET -4.081825 -39.591045 13.023800
				CHANNELS 3 Xrotation Yrotation Zrotation
				JOINT RightFoot
				{
					OFFSET 4.081824 -37.707954 -15.979600
					CHANNELS 3 Xrotation Yrotation Zrotation
					JOINT RightToeBase
					{
						OFFSET -5.346400 -15.068900 20.645000
						CHANNELS 3 Xrotation Yrotation Zrotation
						JOINT RightToe_End
						{
							OFFSET -2.754700 0.931300 11.300900
							CHANNELS 3 Xrotation Yrotation Zrotation
							End Site
							{
								OFFSET 0 0 0
							}
						}
					}
				}
			}
		}
	}
	JOINT Spine_virtual
	{
		OFFSET 0.000000 0.000000 0.000000
		CHANNELS 3 Xrotation Yrotation Zrotation
		JOINT Spine
		{
			OFFSET -0.279200 12.230698 -2.892100
			CHANNELS 3 Xrotation Yrotation Zrotation
			JOINT Spine1
			{
				OFFSET -0.232667 10.192268 -1.242267
				CHANNELS 3 Xrotation Yrotation Zrotation
				JOINT Spine1_split
				{
					OFFSET -0.232667 10.192268 -1.242267
					CHANNELS 3 Xrotation Yrotation Zrotation
					JOINT Spine2
					{
						OFFSET -0.232667 10.192268 -1.242267
						CHANNELS 3 Xrotation Yrotation Zrotation
						JOINT Neck_virtual
						{
							OFFSET 0.000000 0.000000 0.000000
							CHANNELS 3 Xrotation Yrotation Zrotation
							JOINT Neck
							{
								OFFSET -0.418800 17.814194 8.416900
								CHANNELS 3 Xrotation Yrotation Zrotation
								JOINT Head
								{
									OFFSET 0.000000 7.031097 3.806800
									CHANNELS 3 Xrotation Yrotation Zrotation
									JOINT HeadTop_End
									{
										OFFSET 0.000000 24.646606 12.978600
										CHANNELS 3 Xrotation Yrotation Zrotation
										End Site
										{
											OFFSET 0 0 0
										}
									}
								}
							}
						}
						JOINT LeftShoulder_virtual
						{
							OFFSET 0.000000 0.000000 0.000000
							CHANNELS 3 Xrotation Yrotation Zrotation
							JOINT LeftShoulder
							{
								OFFSET 8.476499 7.247704 -3.868750
								CHANNELS 3 Xrotation Yrotation Zrotation
								JOINT LeftShoulder_split
								{
									OFFSET 8.476499 7.247704 -3.868750
									CHANNELS 3 Xrotation Yrotation Zrotation
									JOINT LeftArm
									{
										OFFSET 9.308998 -2.777710 0.208600
										CHANNELS 3 Xrotation Yrotation Zrotation
										JOINT LeftForeArm
										{
											OFFSET 29.972298 0.000000 0.000000
											CHANNELS 3 Xrotation Yrotation Zrotation
											JOINT LeftHand
											{
												OFFSET 26.026505 0.000000 0.000000
												CHANNELS 3 Xrotation Yrotation Zrotation
												End Site
												{
													OFFSET 0 0 0
												}
											}
										}
									}
								}
							}
						}
						JOINT RightShoulder_virtual
						{
							OFFSET 0.000000 0.000000 0.000000
							CHANNELS 3 Xrotation Yrotation Zrotation
							JOINT RightShoulder
							{
								OFFSET -7.570500 7.247704 -3.868750
								CHANNELS 3 Xrotation Yrotation Zrotation
								JOINT RightShoulder_split
								{
									OFFSET -7.570500 7.247704 -3.868750
									CHANNELS 3 Xrotation Yrotation Zrotation
									JOINT RightArm
									{
										OFFSET -9.308998 -2.777710 0.208500
										CHANNELS 3 Xrotation Yrotation Zrotation
										JOINT RightForeArm
										{
											OFFSET -29.972300 0.000000 0.000000
											CHANNELS 3 Xrotation Yrotation Zrotation
											JOINT RightHand
											{
												OFFSET -26.026505 0.000000 0.000000
												CHANNELS 3 Xrotation Yrotation Zrotation
												End Site
												{
													OFFSET 0 0 0
												}
											}
										}
									}
								}
							}
						}
					}
				}
			}
		}
	}
}
MOTION
Frames: 8
Frame Time: 0.03333333
0.462949 122.741837 15.068958 0.000000 0.000000 0.000000 3.630845 -35.803039 3.904795 -76.973561 -18.897470 33.540279 67.815726 -1.593856 6.829846 7.079089 -0.372079 -0.047611 0.031764 -0.007722 0.000011 0.000000 0.000000 0.000000 3.630845 -35.803039 3.904795 -100.827744 -67.343104 34.237734 113.864683 -10.218859 -30.428206 23.137361 0.409259 29.764469 0.004145 0.000172 -0.000331 0.000000 0.000000 0.000000 3.630845 -35.803039 3.904795 31.640107 -6.330014 -10.046129 14.129384 0.964743 -3.082684 0.000000 0.000000 0.000000 0.000000 0.000000 0.000000 14.083551 0.916931 -3.297929 -8.677484 21.443468 -12.816590 -25.381084 13.620604 5.249199 0.000000 0.000000 0.000000 14.083551 0.916931 -3.297929 11.474083 -16.374153 4.408444 0.000000 0.000000 0.000000 -62.668823 -4.844732 -3.758208 45.767656 -24.019439 29.511127 0.000000 0.000000 0.000000 14.083551 0.916931 -3.297929 18.189219 24.092155 -9.603798 0.000000 0.000000 0.000000 -33.453143 6.374207 2.980962 -41.939219 39.311133 29.275895 0.000000 0.000000 0.000000 
0.456459 122.694878 15.017287 0.000000 0.000000 0.000000 3.679677 -35.991528 4.020389 -77.017199 -18.865915 33.500575 67.797277 -1.653485 6.796308 7.084269 -0.163266 -0.171289 0.022393 -0.007748 0.000031 0.000000 0.000000 0.000000 3.679677 -35.991528 4.020389 -100.853480 -67.175320 33.645030 113.724385 -9.842070 -30.254613 22.817949 0.368470 29.427187 0.005014 0.000198 -0.000319 0.000000 0.000000 0.000000 3.679677 -35.991528 4.020389 31.637528 -6.366365 -10.065929 14.121968 0.959986 -3.082248 0.000000 0.000000 0.000000 0.000000 0.000000 0.000000 14.068810 0.912811 -3.297122 -8.610289 21.493205 -12.821316 -25.195721 13.750095 5.199518 0.000000 0.000000 0.000000 14.068810 0.912811 -3.297122 11.267124 -16.494261 3.552181 0.000000 0.000000 0.000000 -61.836387 -4.277149 -3.867883 45.655307 -23.778493 29.256671 0.000000 0.000000 0.000000 14.068810 0.912811 -3.297122 17.871455 24.380041 -8.840630 0.000000 0.000000 0.000000 -32.509668 6.730318 2.966663 -41.608068 38.845164 28.745701 0.000000 0.000000 0.000000 
0.460481 122.640671 14.958563 0.000000 0.000000 0.000000 3.732678 -36.126865 4.139218 -77.024719 -18.819866 33.458768 67.719256 -1.673301 6.785896 7.066767 -0.050935 -0.324552 0.013817 -0.007791 -0.000005 0.000000 0.000000 0.000000 3.732678 -36.126865 4.139218 -100.818571 -66.973215 33.060670 113.570289 -9.469028 -30.077831 22.478289 0.322536 29.131696 0.005032 0.000164 -0.000350 0.000000 0.000000 0.000000 3.732678 -36.126865 4.139218 31.607213 -6.399565 -10.076189 14.084152 0.946270 -3.078783 0.000000 0.000000 0.000000 0.000000 0.000000 0.000000 14.024752 0.902257 -3.293459 -8.559995 21.556439 -12.797782 -24.976460 13.886572 5.176314 0.000000 0.000000 0.000000 14.024752 0.902257 -3.293459 11.087244 -16.530096 2.819700 0.000000 0.000000 0.000000 -61.258840 -3.422806 -3.756273 45.583528 -23.623784 29.096165 0.000000 0.000000 0.000000 14.024752 0.902257 -3.293459 17.522809 24.569659 -8.065065 0.000000 0.000000 0.000000 -31.766578 6.787543 2.888677 -41.306286 38.411768 28.260107 0.000000 0.000000 0.000000 
0.468943 122.585075 14.892283 0.000000 0.000000 0.000000 3.789114 -36.202383 4.258814 -76.995309 -18.777920 33.422708 67.594994 -1.581845 6.836457 7.021036 -0.119515 -0.408605 -0.002652 -0.007788 0.000006 0.000000 0.000000 0.000000 3.789114 -36.202383 4.258814 -100.741780 -66.758836 32.491743 113.419751 -9.069412 -29.911055 22.110364 0.278614 28.910722 0.004486 0.000168 -0.000373 0.000000 0.000000 0.000000 3.789114 -36.202383 4.258814 31.559589 -6.429050 -10.078091 14.021876 0.921097 -3.071941 0.000000 0.000000 0.000000 0.000000 0.000000 0.000000 13.962303 0.883270 -3.285257 -8.535238 21.652830 -12.746683 -24.714377 14.082422 5.207961 0.000000 0.000000 0.000000 13.962303 0.883270 -3.285257 10.892953 -16.486461 2.082164 0.000000 0.000000 0.000000 -60.703504 -2.446160 -3.677433 45.522787 -23.492939 28.962328 0.000000 0.000000 0.000000 13.962303 0.883270 -3.285257 17.154391 24.738902 -7.233025 0.000000 0.000000 0.000000 -30.927424 6.665486 2.774250 -41.041398 38.023533 27.831313 0.000000 0.000000 0.000000 
0.465003 122.532555 14.814600 0.000000 0.000000 0.000000 3.847509 -36.270357 4.386899 -76.921782 -18.679715 33.386149 67.454600 -1.397547 6.939914 6.865584 -0.134803 -0.461192 -0.087889 -0.007716 0.000005 0.000000 0.000000 0.000000 3.847509 -36.270357 4.386899 -100.624416 -66.542080 31.958079 113.248095 -8.703254 -29.760237 21.742012 0.236852 28.680347 0.003628 0.000194 -0.000363 0.000000 0.000000 0.000000 3.847509 -36.270357 4.386899 31.482787 -6.457364 -10.081084 13.939569 0.894843 -3.064078 0.000000 0.000000 0.000000 0.000000 0.000000 0.000000 13.883507 0.860893 -3.274872 -8.539684 21.727069 -12.632798 -24.434527 14.133025 5.300545 0.000000 0.000000 0.000000 13.883507 0.860893 -3.274872 10.735054 -16.337295 1.386326 0.000000 0.000000 0.000000 -60.173352 -1.363559 -3.614976 45.514823 -23.476706 28.951956 0.000000 0.000000 0.000000 13.883507 0.860893 -3.274872 16.731843 24.898374 -6.280348 0.000000 0.000000 0.000000 -30.228416 6.296628 2.609975 -40.812180 37.681348 27.458119 0.000000 0.000000 0.000000 
0.438984 122.457161 14.760145 0.000000 0.000000 0.000000 3.908920 -36.354641 4.503250 -76.879257 -18.450733 33.141205 67.293653 -2.217927 6.478595 6.728281 1.045578 -0.392026 -0.104811 -0.007795 0.000054 0.000000 0.000000 0.000000 3.908920 -36.354641 4.503250 -100.453539 -66.401952 31.585400 113.104661 -8.420506 -29.628855 21.369848 0.194990 28.453766 0.002732 0.000222 -0.000367 0.000000 0.000000 0.000000 3.908920 -36.354641 4.503250 31.365383 -6.452986 -10.077808 13.829188 0.878552 -3.055078 0.000000 0.000000 0.000000 0.000000 0.000000 0.000000 13.789074 0.840566 -3.264783 -8.466568 21.759483 -12.563933 -24.132035 14.143985 5.284628 0.000000 0.000000 0.000000 13.789074 0.840566 -3.264783 10.586197 -16.074442 0.690732 0.000000 0.000000 0.000000 -59.669735 -0.103451 -3.407523 45.509086 -23.467675 28.949835 0.000000 0.000000 0.000000 13.789074 0.840566 -3.264783 16.299186 25.012677 -5.338992 0.000000 0.000000 0.000000 -29.588509 5.724239 2.407799 -40.616171 37.384518 27.137549 0.000000 0.000000 0.000000 
0.413312 122.406677 14.696671 0.000000 0.000000 0.000000 3.969740 -36.426376 4.628838 -76.746806 -18.290454 33.048243 67.106520 -2.310964 6.426414 6.503884 1.316858 -0.408787 -0.163473 -0.007734 -0.000012 0.000000 0.000000 0.000000 3.969740 -36.426376 4.628838 -100.314292 -66.230917 31.181231 112.949971 -8.117100 -29.506038 21.018413 0.152019 28.234011 0.002055 0.000192 -0.000382 0.000000 0.000000 0.000000 3.969740 -36.426376 4.628838 31.207493 -6.451278 -10.064024 13.709092 0.874860 -3.047965 0.000000 0.000000 0.000000 0.000000 0.000000 0.000000 13.675684 0.830844 -3.256753 -8.469486 21.756089 -12.593183 -24.037171 14.197861 5.281775 0.000000 0.000000 0.000000 13.675684 0.830844 -3.256753 10.445857 -15.713984 0.015677 0.000000 0.000000 0.000000 -59.222842 1.242582 -3.173087 45.509195 -23.473429 28.963410 0.000000 0.000000 0.000000 13.675684 0.830844 -3.256753 15.883417 25.065112 -4.464586 0.000000 0.000000 0.000000 -29.019169 5.005183 2.195801 -40.450108 37.131490 26.866242 0.000000 0.000000 0.000000 
0.376465 122.365746 14.645965 0.000000 0.000000 0.000000 4.030809 -36.501077 4.751929 -76.569569 -18.111674 32.954088 66.894716 -2.498119 6.323370 6.199469 1.658186 -0.472227 -0.164303 -0.007736 -0.000003 0.000000 0.000000 0.000000 4.030809 -36.501077 4.751929 -100.209537 -66.104155 30.859464 112.818012 -7.918586 -29.413335 20.696476 0.122390 28.005649 0.001885 0.000159 -0.000363 0.000000 0.000000 0.000000 4.030809 -36.501077 4.751929 31.028832 -6.420506 -10.018170 13.586270 0.877309 -3.036974 0.000000 0.000000 0.000000 0.000000 0.000000 0.000000 13.547668 0.831896 -3.248922 -8.410977 21.717469 -12.630172 -23.881599 14.196203 5.208121 0.000000 0.000000 0.000000 13.547668 0.831896 -3.248922 10.297277 -15.271167 -0.647830 0.000000 0.000000 0.000000 -58.848609 2.671696 -2.870560 45.518986 -23.501247 28.999720 0.000000 0.000000 0.000000 13.547668 0.831896 -3.248922 15.533892 25.035048 -3.731462 0.000000 0.000000 0.000000 -28.502849 3.868204 1.818863 -40.435502 37.112775 26.845454 0.000000 0.000000 0.000000 
